<svg id="icon-instagram" viewBox="0 0 22 22" width="100%" height="100%">
	<path d="M5.4,3.5h11.1c1.1,0,1.9,0.9,1.9,1.9v11.1c0,1.1-0.9,1.9-1.9,1.9H5.4c-1.1,0-1.9-0.9-1.9-1.9V5.4C3.5,4.4,4.4,3.5,5.4,3.5L5.4,3.5z M14.4,5.2c-0.4,0-0.7,0.3-0.7,0.7v1.6c0,0.4,0.3,0.7,0.7,0.7h1.7c0.4,0,0.7-0.3,0.7-0.7V5.8c0-0.4-0.3-0.7-0.7-0.7H14.4L14.4,5.2z M16.8,9.8h-1.3c0.1,0.4,0.2,0.8,0.2,1.3c0,2.5-2.1,4.5-4.7,4.5c-2.6,0-4.7-2-4.7-4.5c0-0.4,0.1-0.9,0.2-1.3H5.2v6.3c0,0.3,0.3,0.6,0.6,0.6h10.4c0.3,0,0.6-0.3,0.6-0.6V9.8L16.8,9.8z M11,8C9.4,8,8,9.4,8,11c0,1.6,1.3,2.9,3,2.9c1.7,0,3-1.3,3-2.9C14,9.4,12.7,8,11,8z"></path>
</svg>